<mxfile host="Electron" agent="Mozilla/5.0 (X11; Linux x86_64) AppleWebKit/537.36 (KHTML, like Gecko) draw.io/24.7.8 Chrome/128.0.6613.36 Electron/32.0.1 Safari/537.36" version="24.7.8">
  <diagram name="Page-1" id="vrrhkwlHfLlNqbC9M2Xo">
    <mxGraphModel dx="474" dy="1667" grid="1" gridSize="10" guides="1" tooltips="1" connect="1" arrows="1" fold="1" page="1" pageScale="1" pageWidth="1169" pageHeight="827" math="0" shadow="0">
      <root>
        <mxCell id="0" />
        <mxCell id="1" parent="0" />
        <mxCell id="72nOnzI87R823NK41PAz-2" value="" style="whiteSpace=wrap;html=1;aspect=fixed;direction=east;" parent="1" vertex="1">
          <mxGeometry x="40" y="40" width="440" height="440" as="geometry" />
        </mxCell>
        <mxCell id="72nOnzI87R823NK41PAz-11" value="&lt;div&gt;Budynek 2&lt;/div&gt;" style="text;html=1;strokeColor=none;fillColor=none;align=center;verticalAlign=middle;whiteSpace=wrap;rounded=0;direction=east;" parent="1" vertex="1">
          <mxGeometry x="60" y="440" width="60" height="30" as="geometry" />
        </mxCell>
        <mxCell id="72nOnzI87R823NK41PAz-13" value="Piętro 1" style="text;html=1;strokeColor=none;fillColor=none;align=center;verticalAlign=middle;whiteSpace=wrap;rounded=0;direction=east;" parent="1" vertex="1">
          <mxGeometry x="160" y="440" width="60" height="30" as="geometry" />
        </mxCell>
        <mxCell id="72nOnzI87R823NK41PAz-166" style="edgeStyle=orthogonalEdgeStyle;rounded=0;orthogonalLoop=1;jettySize=auto;html=1;exitX=0.87;exitY=0.74;exitDx=0;exitDy=0;entryX=0;entryY=0.5;entryDx=0;entryDy=0;fillColor=#f8cecc;strokeColor=#b85450;exitPerimeter=0;" parent="1" source="72nOnzI87R823NK41PAz-51" target="72nOnzI87R823NK41PAz-157" edge="1">
          <mxGeometry relative="1" as="geometry" />
        </mxCell>
        <mxCell id="72nOnzI87R823NK41PAz-51" value="" style="shape=mxgraph.cisco.switches.workgroup_switch;sketch=0;html=1;pointerEvents=1;dashed=0;fillColor=#036897;strokeColor=#ffffff;strokeWidth=2;verticalLabelPosition=bottom;verticalAlign=top;align=center;outlineConnect=0;direction=east;" parent="1" vertex="1">
          <mxGeometry x="189" y="260" width="101" height="50" as="geometry" />
        </mxCell>
        <mxCell id="72nOnzI87R823NK41PAz-117" value="" style="ellipse;shape=cloud;whiteSpace=wrap;html=1;direction=east;" parent="1" vertex="1">
          <mxGeometry x="1040" y="-110" width="120" height="80" as="geometry" />
        </mxCell>
        <mxCell id="72nOnzI87R823NK41PAz-157" value="" style="image;aspect=fixed;perimeter=ellipsePerimeter;html=1;align=center;shadow=0;dashed=0;spacingTop=3;image=img/lib/active_directory/wiring_hub.svg;direction=east;" parent="1" vertex="1">
          <mxGeometry x="380" y="380" width="50" height="34" as="geometry" />
        </mxCell>
        <mxCell id="72nOnzI87R823NK41PAz-167" value="IDF 2" style="text;html=1;strokeColor=none;fillColor=none;align=center;verticalAlign=middle;whiteSpace=wrap;rounded=0;direction=east;" parent="1" vertex="1">
          <mxGeometry x="370" y="425" width="60" height="30" as="geometry" />
        </mxCell>
        <mxCell id="72nOnzI87R823NK41PAz-1" value="m" style="swimlane;startSize=0;direction=east;" parent="1" vertex="1">
          <mxGeometry x="800" y="100" width="1140" height="1127.5" as="geometry" />
        </mxCell>
        <mxCell id="72nOnzI87R823NK41PAz-29" style="edgeStyle=orthogonalEdgeStyle;rounded=0;orthogonalLoop=1;jettySize=auto;html=1;" parent="72nOnzI87R823NK41PAz-1" source="72nOnzI87R823NK41PAz-3" target="72nOnzI87R823NK41PAz-12" edge="1">
          <mxGeometry relative="1" as="geometry" />
        </mxCell>
        <mxCell id="72nOnzI87R823NK41PAz-3" value="" style="whiteSpace=wrap;html=1;aspect=fixed;direction=east;" parent="72nOnzI87R823NK41PAz-1" vertex="1">
          <mxGeometry x="42.5" y="40" width="557.5" height="557.5" as="geometry" />
        </mxCell>
        <mxCell id="72nOnzI87R823NK41PAz-27" style="edgeStyle=orthogonalEdgeStyle;rounded=0;orthogonalLoop=1;jettySize=auto;html=1;exitX=0.5;exitY=1;exitDx=0;exitDy=0;entryX=0.5;entryY=0;entryDx=0;entryDy=0;" parent="72nOnzI87R823NK41PAz-1" source="72nOnzI87R823NK41PAz-4" target="72nOnzI87R823NK41PAz-14" edge="1">
          <mxGeometry relative="1" as="geometry" />
        </mxCell>
        <mxCell id="72nOnzI87R823NK41PAz-4" value="" style="whiteSpace=wrap;html=1;aspect=fixed;direction=east;" parent="72nOnzI87R823NK41PAz-1" vertex="1">
          <mxGeometry x="630" y="35" width="450" height="450" as="geometry" />
        </mxCell>
        <mxCell id="72nOnzI87R823NK41PAz-31" style="edgeStyle=orthogonalEdgeStyle;rounded=0;orthogonalLoop=1;jettySize=auto;html=1;exitX=0.5;exitY=0;exitDx=0;exitDy=0;" parent="72nOnzI87R823NK41PAz-1" source="72nOnzI87R823NK41PAz-5" target="72nOnzI87R823NK41PAz-15" edge="1">
          <mxGeometry relative="1" as="geometry" />
        </mxCell>
        <mxCell id="72nOnzI87R823NK41PAz-5" value="" style="whiteSpace=wrap;html=1;aspect=fixed;direction=east;" parent="72nOnzI87R823NK41PAz-1" vertex="1">
          <mxGeometry x="42.5" y="660" width="427.5" height="427.5" as="geometry" />
        </mxCell>
        <mxCell id="72nOnzI87R823NK41PAz-32" style="edgeStyle=orthogonalEdgeStyle;rounded=0;orthogonalLoop=1;jettySize=auto;html=1;exitX=0.5;exitY=0;exitDx=0;exitDy=0;" parent="72nOnzI87R823NK41PAz-1" source="72nOnzI87R823NK41PAz-6" target="72nOnzI87R823NK41PAz-16" edge="1">
          <mxGeometry relative="1" as="geometry" />
        </mxCell>
        <mxCell id="72nOnzI87R823NK41PAz-6" value="" style="whiteSpace=wrap;html=1;aspect=fixed;direction=east;" parent="72nOnzI87R823NK41PAz-1" vertex="1">
          <mxGeometry x="607.5" y="562.5" width="485" height="485" as="geometry" />
        </mxCell>
        <mxCell id="72nOnzI87R823NK41PAz-9" value="Budynek 1" style="text;html=1;strokeColor=none;fillColor=none;align=center;verticalAlign=middle;whiteSpace=wrap;rounded=0;direction=east;" parent="72nOnzI87R823NK41PAz-1" vertex="1">
          <mxGeometry x="535" y="20" width="60" height="30" as="geometry" />
        </mxCell>
        <mxCell id="72nOnzI87R823NK41PAz-12" value="Piętro 1" style="text;html=1;strokeColor=none;fillColor=none;align=center;verticalAlign=middle;whiteSpace=wrap;rounded=0;direction=east;" parent="72nOnzI87R823NK41PAz-1" vertex="1">
          <mxGeometry x="323" y="597.5" width="60" height="30" as="geometry" />
        </mxCell>
        <mxCell id="72nOnzI87R823NK41PAz-14" value="Piętro 2" style="text;html=1;strokeColor=none;fillColor=none;align=center;verticalAlign=middle;whiteSpace=wrap;rounded=0;direction=east;" parent="72nOnzI87R823NK41PAz-1" vertex="1">
          <mxGeometry x="911" y="490" width="60" height="30" as="geometry" />
        </mxCell>
        <mxCell id="72nOnzI87R823NK41PAz-15" value="Piętro 3" style="text;html=1;strokeColor=none;fillColor=none;align=center;verticalAlign=middle;whiteSpace=wrap;rounded=0;direction=east;" parent="72nOnzI87R823NK41PAz-1" vertex="1">
          <mxGeometry x="182.5" y="640" width="60" height="30" as="geometry" />
        </mxCell>
        <mxCell id="72nOnzI87R823NK41PAz-16" value="Piętro 4" style="text;html=1;strokeColor=none;fillColor=none;align=center;verticalAlign=middle;whiteSpace=wrap;rounded=0;direction=east;" parent="72nOnzI87R823NK41PAz-1" vertex="1">
          <mxGeometry x="810.5" y="500" width="60" height="30" as="geometry" />
        </mxCell>
        <mxCell id="72nOnzI87R823NK41PAz-165" style="edgeStyle=orthogonalEdgeStyle;rounded=0;orthogonalLoop=1;jettySize=auto;html=1;exitX=0.87;exitY=0.74;exitDx=0;exitDy=0;entryX=0;entryY=0;entryDx=0;entryDy=0;fillColor=#f8cecc;strokeColor=#b85450;exitPerimeter=0;" parent="72nOnzI87R823NK41PAz-1" source="72nOnzI87R823NK41PAz-34" target="72nOnzI87R823NK41PAz-149" edge="1">
          <mxGeometry relative="1" as="geometry" />
        </mxCell>
        <mxCell id="72nOnzI87R823NK41PAz-34" value="" style="shape=mxgraph.cisco.switches.workgroup_switch;sketch=0;html=1;pointerEvents=1;dashed=0;fillColor=#036897;strokeColor=#ffffff;strokeWidth=2;verticalLabelPosition=bottom;verticalAlign=top;align=center;outlineConnect=0;direction=east;" parent="72nOnzI87R823NK41PAz-1" vertex="1">
          <mxGeometry x="157" y="180" width="101" height="50" as="geometry" />
        </mxCell>
        <mxCell id="72nOnzI87R823NK41PAz-184" style="edgeStyle=orthogonalEdgeStyle;rounded=0;orthogonalLoop=1;jettySize=auto;html=1;exitX=0.98;exitY=0.5;exitDx=0;exitDy=0;entryX=0;entryY=1;entryDx=0;entryDy=0;fillColor=#f8cecc;strokeColor=#b85450;exitPerimeter=0;" parent="72nOnzI87R823NK41PAz-1" source="72nOnzI87R823NK41PAz-36" target="72nOnzI87R823NK41PAz-156" edge="1">
          <mxGeometry relative="1" as="geometry" />
        </mxCell>
        <mxCell id="72nOnzI87R823NK41PAz-36" value="" style="shape=mxgraph.cisco.switches.workgroup_switch;sketch=0;html=1;pointerEvents=1;dashed=0;fillColor=#036897;strokeColor=#ffffff;strokeWidth=2;verticalLabelPosition=bottom;verticalAlign=top;align=center;outlineConnect=0;direction=east;" parent="72nOnzI87R823NK41PAz-1" vertex="1">
          <mxGeometry x="157" y="830" width="101" height="50" as="geometry" />
        </mxCell>
        <mxCell id="72nOnzI87R823NK41PAz-185" style="edgeStyle=orthogonalEdgeStyle;rounded=0;orthogonalLoop=1;jettySize=auto;html=1;exitX=0.87;exitY=0.74;exitDx=0;exitDy=0;entryX=1;entryY=0;entryDx=0;entryDy=0;fillColor=#f8cecc;strokeColor=#b85450;exitPerimeter=0;" parent="72nOnzI87R823NK41PAz-1" source="72nOnzI87R823NK41PAz-37" target="72nOnzI87R823NK41PAz-149" edge="1">
          <mxGeometry relative="1" as="geometry" />
        </mxCell>
        <mxCell id="72nOnzI87R823NK41PAz-37" value="" style="shape=mxgraph.cisco.switches.workgroup_switch;sketch=0;html=1;pointerEvents=1;dashed=0;fillColor=#036897;strokeColor=#ffffff;strokeWidth=2;verticalLabelPosition=bottom;verticalAlign=top;align=center;outlineConnect=0;direction=east;" parent="72nOnzI87R823NK41PAz-1" vertex="1">
          <mxGeometry x="764.5" y="235" width="101" height="50" as="geometry" />
        </mxCell>
        <mxCell id="72nOnzI87R823NK41PAz-163" value="" style="edgeStyle=orthogonalEdgeStyle;rounded=0;orthogonalLoop=1;jettySize=auto;html=1;fillColor=#f8cecc;strokeColor=#b85450;" parent="72nOnzI87R823NK41PAz-1" source="72nOnzI87R823NK41PAz-38" target="72nOnzI87R823NK41PAz-156" edge="1">
          <mxGeometry relative="1" as="geometry" />
        </mxCell>
        <mxCell id="72nOnzI87R823NK41PAz-38" value="" style="shape=mxgraph.cisco.switches.workgroup_switch;sketch=0;html=1;pointerEvents=1;dashed=0;fillColor=#036897;strokeColor=#ffffff;strokeWidth=2;verticalLabelPosition=bottom;verticalAlign=top;align=center;outlineConnect=0;direction=east;" parent="72nOnzI87R823NK41PAz-1" vertex="1">
          <mxGeometry x="815" y="760" width="101" height="50" as="geometry" />
        </mxCell>
        <mxCell id="72nOnzI87R823NK41PAz-72" value="" style="html=1;verticalLabelPosition=bottom;align=center;labelBackgroundColor=#ffffff;verticalAlign=top;strokeWidth=2;strokeColor=#0080F0;shadow=0;dashed=0;shape=mxgraph.ios7.icons.smartphone;direction=east;" parent="72nOnzI87R823NK41PAz-1" vertex="1">
          <mxGeometry x="932" y="280" width="18" height="30" as="geometry" />
        </mxCell>
        <mxCell id="72nOnzI87R823NK41PAz-73" value="Mobile phones 1-16" style="text;html=1;strokeColor=none;fillColor=none;align=center;verticalAlign=middle;whiteSpace=wrap;rounded=0;direction=east;" parent="72nOnzI87R823NK41PAz-1" vertex="1">
          <mxGeometry x="911" y="325" width="60" height="30" as="geometry" />
        </mxCell>
        <mxCell id="72nOnzI87R823NK41PAz-78" value="Drukarki 3-5" style="text;html=1;strokeColor=none;fillColor=none;align=center;verticalAlign=middle;whiteSpace=wrap;rounded=0;direction=east;" parent="72nOnzI87R823NK41PAz-1" vertex="1">
          <mxGeometry x="689" y="404" width="60" height="30" as="geometry" />
        </mxCell>
        <mxCell id="72nOnzI87R823NK41PAz-99" value="Drukarki 7-8" style="text;html=1;strokeColor=none;fillColor=none;align=center;verticalAlign=middle;whiteSpace=wrap;rounded=0;direction=east;" parent="72nOnzI87R823NK41PAz-1" vertex="1">
          <mxGeometry x="1020" y="680" width="60" height="30" as="geometry" />
        </mxCell>
        <mxCell id="72nOnzI87R823NK41PAz-169" style="edgeStyle=orthogonalEdgeStyle;rounded=0;orthogonalLoop=1;jettySize=auto;html=1;fillColor=#f8cecc;strokeColor=#b85450;exitX=0.5;exitY=0;exitDx=0;exitDy=0;exitPerimeter=0;" parent="72nOnzI87R823NK41PAz-1" source="72nOnzI87R823NK41PAz-112" target="72nOnzI87R823NK41PAz-168" edge="1">
          <mxGeometry relative="1" as="geometry" />
        </mxCell>
        <mxCell id="72nOnzI87R823NK41PAz-170" style="edgeStyle=orthogonalEdgeStyle;rounded=0;orthogonalLoop=1;jettySize=auto;html=1;fillColor=#f8cecc;strokeColor=#b85450;exitX=0.5;exitY=0;exitDx=0;exitDy=0;exitPerimeter=0;" parent="72nOnzI87R823NK41PAz-1" source="72nOnzI87R823NK41PAz-113" target="72nOnzI87R823NK41PAz-168" edge="1">
          <mxGeometry relative="1" as="geometry" />
        </mxCell>
        <mxCell id="72nOnzI87R823NK41PAz-113" value="" style="shape=mxgraph.cisco.servers.file_server;sketch=0;html=1;pointerEvents=1;dashed=0;fillColor=#036897;strokeColor=#ffffff;strokeWidth=2;verticalLabelPosition=bottom;verticalAlign=top;align=center;outlineConnect=0;direction=east;" parent="72nOnzI87R823NK41PAz-1" vertex="1">
          <mxGeometry x="121.5" y="442" width="43" height="58" as="geometry" />
        </mxCell>
        <mxCell id="72nOnzI87R823NK41PAz-119" value="" style="html=1;verticalLabelPosition=bottom;align=center;labelBackgroundColor=#ffffff;verticalAlign=top;strokeWidth=2;strokeColor=#0080F0;shadow=0;dashed=0;shape=mxgraph.ios7.icons.smartphone;direction=east;" parent="72nOnzI87R823NK41PAz-1" vertex="1">
          <mxGeometry x="650" y="670" width="18" height="30" as="geometry" />
        </mxCell>
        <mxCell id="72nOnzI87R823NK41PAz-154" value="" style="edgeStyle=orthogonalEdgeStyle;rounded=0;orthogonalLoop=1;jettySize=auto;html=1;" parent="72nOnzI87R823NK41PAz-1" source="72nOnzI87R823NK41PAz-120" target="72nOnzI87R823NK41PAz-119" edge="1">
          <mxGeometry relative="1" as="geometry" />
        </mxCell>
        <mxCell id="72nOnzI87R823NK41PAz-120" value="Mobile phones 17-28" style="text;html=1;strokeColor=none;fillColor=none;align=center;verticalAlign=middle;whiteSpace=wrap;rounded=0;direction=east;" parent="72nOnzI87R823NK41PAz-1" vertex="1">
          <mxGeometry x="629" y="610" width="60" height="30" as="geometry" />
        </mxCell>
        <mxCell id="72nOnzI87R823NK41PAz-160" style="edgeStyle=orthogonalEdgeStyle;rounded=0;orthogonalLoop=1;jettySize=auto;html=1;exitX=0.5;exitY=1;exitDx=0;exitDy=0;entryX=0.5;entryY=0;entryDx=0;entryDy=0;fillColor=#f8cecc;strokeColor=#b85450;exitPerimeter=0;" parent="72nOnzI87R823NK41PAz-1" source="72nOnzI87R823NK41PAz-116" target="72nOnzI87R823NK41PAz-149" edge="1">
          <mxGeometry relative="1" as="geometry" />
        </mxCell>
        <mxCell id="D9AzWVtUxg92JwBk0wAL-8" style="edgeStyle=orthogonalEdgeStyle;rounded=0;orthogonalLoop=1;jettySize=auto;html=1;fillColor=#f8cecc;strokeColor=#b85450;exitX=0.99;exitY=0.01;exitDx=0;exitDy=0;exitPerimeter=0;" parent="72nOnzI87R823NK41PAz-1" source="72nOnzI87R823NK41PAz-116" target="D9AzWVtUxg92JwBk0wAL-6" edge="1">
          <mxGeometry relative="1" as="geometry" />
        </mxCell>
        <mxCell id="72nOnzI87R823NK41PAz-116" value="Fortigate300F" style="shape=mxgraph.cisco.controllers_and_modules.firewall_service_module_(fwsm);sketch=0;html=1;pointerEvents=1;dashed=0;fillColor=#036897;strokeColor=#ffffff;strokeWidth=2;verticalLabelPosition=bottom;verticalAlign=top;align=center;outlineConnect=0;direction=east;" parent="72nOnzI87R823NK41PAz-1" vertex="1">
          <mxGeometry x="389.5" y="65" width="53" height="85" as="geometry" />
        </mxCell>
        <mxCell id="72nOnzI87R823NK41PAz-149" value="" style="image;aspect=fixed;perimeter=ellipsePerimeter;html=1;align=center;shadow=0;dashed=0;spacingTop=3;image=img/lib/active_directory/wiring_hub.svg;direction=east;" parent="72nOnzI87R823NK41PAz-1" vertex="1">
          <mxGeometry x="400" y="370" width="50" height="34" as="geometry" />
        </mxCell>
        <mxCell id="72nOnzI87R823NK41PAz-164" style="edgeStyle=orthogonalEdgeStyle;rounded=0;orthogonalLoop=1;jettySize=auto;html=1;exitX=0;exitY=0;exitDx=0;exitDy=0;entryX=1;entryY=0.75;entryDx=0;entryDy=0;fillColor=#f8cecc;strokeColor=#b85450;" parent="72nOnzI87R823NK41PAz-1" source="72nOnzI87R823NK41PAz-156" target="72nOnzI87R823NK41PAz-149" edge="1">
          <mxGeometry relative="1" as="geometry" />
        </mxCell>
        <mxCell id="72nOnzI87R823NK41PAz-156" value="" style="image;aspect=fixed;perimeter=ellipsePerimeter;html=1;align=center;shadow=0;dashed=0;spacingTop=3;image=img/lib/active_directory/wiring_hub.svg;direction=east;" parent="72nOnzI87R823NK41PAz-1" vertex="1">
          <mxGeometry x="839.5" y="638" width="50" height="34" as="geometry" />
        </mxCell>
        <mxCell id="72nOnzI87R823NK41PAz-159" value="" style="edgeStyle=orthogonalEdgeStyle;rounded=0;orthogonalLoop=1;jettySize=auto;html=1;" parent="72nOnzI87R823NK41PAz-1" source="72nOnzI87R823NK41PAz-158" target="72nOnzI87R823NK41PAz-149" edge="1">
          <mxGeometry relative="1" as="geometry" />
        </mxCell>
        <mxCell id="72nOnzI87R823NK41PAz-158" value="MDF" style="text;html=1;strokeColor=none;fillColor=none;align=center;verticalAlign=middle;whiteSpace=wrap;rounded=0;direction=east;" parent="72nOnzI87R823NK41PAz-1" vertex="1">
          <mxGeometry x="382.5" y="460" width="60" height="30" as="geometry" />
        </mxCell>
        <mxCell id="72nOnzI87R823NK41PAz-162" value="" style="edgeStyle=orthogonalEdgeStyle;rounded=0;orthogonalLoop=1;jettySize=auto;html=1;" parent="72nOnzI87R823NK41PAz-1" source="72nOnzI87R823NK41PAz-161" target="72nOnzI87R823NK41PAz-156" edge="1">
          <mxGeometry relative="1" as="geometry" />
        </mxCell>
        <mxCell id="72nOnzI87R823NK41PAz-161" value="IDF 1" style="text;html=1;strokeColor=none;fillColor=none;align=center;verticalAlign=middle;whiteSpace=wrap;rounded=0;direction=east;" parent="72nOnzI87R823NK41PAz-1" vertex="1">
          <mxGeometry x="925" y="608" width="60" height="30" as="geometry" />
        </mxCell>
        <mxCell id="72nOnzI87R823NK41PAz-171" style="edgeStyle=orthogonalEdgeStyle;rounded=0;orthogonalLoop=1;jettySize=auto;html=1;exitX=0.98;exitY=0.5;exitDx=0;exitDy=0;entryX=0;entryY=0;entryDx=0;entryDy=0;fillColor=#f8cecc;strokeColor=#b85450;exitPerimeter=0;" parent="72nOnzI87R823NK41PAz-1" source="72nOnzI87R823NK41PAz-168" target="72nOnzI87R823NK41PAz-149" edge="1">
          <mxGeometry relative="1" as="geometry" />
        </mxCell>
        <mxCell id="72nOnzI87R823NK41PAz-168" value="" style="shape=mxgraph.cisco.switches.workgroup_switch;sketch=0;html=1;pointerEvents=1;dashed=0;fillColor=#036897;strokeColor=#ffffff;strokeWidth=2;verticalLabelPosition=bottom;verticalAlign=top;align=center;outlineConnect=0;direction=east;" parent="72nOnzI87R823NK41PAz-1" vertex="1">
          <mxGeometry x="56" y="350" width="101" height="50" as="geometry" />
        </mxCell>
        <mxCell id="72nOnzI87R823NK41PAz-173" value="" style="rounded=0;whiteSpace=wrap;html=1;fillColor=#ffe6cc;strokeColor=#d79b00;direction=east;" parent="72nOnzI87R823NK41PAz-1" vertex="1">
          <mxGeometry x="43.25" y="55" width="143.5" height="110" as="geometry" />
        </mxCell>
        <mxCell id="72nOnzI87R823NK41PAz-112" value="" style="shape=mxgraph.cisco.servers.file_server;sketch=0;html=1;pointerEvents=1;dashed=0;fillColor=#036897;strokeColor=#ffffff;strokeWidth=2;verticalLabelPosition=bottom;verticalAlign=top;align=center;outlineConnect=0;direction=east;" parent="72nOnzI87R823NK41PAz-1" vertex="1">
          <mxGeometry x="57.5" y="450" width="43" height="58" as="geometry" />
        </mxCell>
        <mxCell id="72nOnzI87R823NK41PAz-174" value="" style="rounded=0;whiteSpace=wrap;html=1;fillColor=#d5e8d4;strokeColor=#82b366;direction=east;" parent="72nOnzI87R823NK41PAz-1" vertex="1">
          <mxGeometry x="200" y="50" width="180" height="100" as="geometry" />
        </mxCell>
        <mxCell id="72nOnzI87R823NK41PAz-22" value="" style="shape=mxgraph.cisco.computers_and_peripherals.workstation;sketch=0;html=1;pointerEvents=1;dashed=0;fillColor=#036897;strokeColor=#ffffff;strokeWidth=2;verticalLabelPosition=bottom;verticalAlign=top;align=center;outlineConnect=0;direction=east;" parent="72nOnzI87R823NK41PAz-1" vertex="1">
          <mxGeometry x="80" y="60" width="70" height="60" as="geometry" />
        </mxCell>
        <mxCell id="72nOnzI87R823NK41PAz-52" value="27-47 PCP" style="text;html=1;strokeColor=none;fillColor=none;align=center;verticalAlign=middle;whiteSpace=wrap;rounded=0;direction=east;" parent="72nOnzI87R823NK41PAz-1" vertex="1">
          <mxGeometry x="49" y="135" width="60" height="30" as="geometry" />
        </mxCell>
        <mxCell id="72nOnzI87R823NK41PAz-135" style="edgeStyle=orthogonalEdgeStyle;rounded=0;orthogonalLoop=1;jettySize=auto;html=1;exitX=0.815;exitY=1;exitDx=0;exitDy=0;exitPerimeter=0;entryX=0.16;entryY=0.23;entryDx=0;entryDy=0;entryPerimeter=0;fillColor=#f8cecc;strokeColor=#b85450;" parent="72nOnzI87R823NK41PAz-1" source="72nOnzI87R823NK41PAz-22" target="72nOnzI87R823NK41PAz-34" edge="1">
          <mxGeometry relative="1" as="geometry" />
        </mxCell>
        <mxCell id="72nOnzI87R823NK41PAz-134" style="edgeStyle=orthogonalEdgeStyle;rounded=0;orthogonalLoop=1;jettySize=auto;html=1;exitX=0.5;exitY=0;exitDx=0;exitDy=0;" parent="72nOnzI87R823NK41PAz-1" source="72nOnzI87R823NK41PAz-52" target="72nOnzI87R823NK41PAz-22" edge="1">
          <mxGeometry relative="1" as="geometry" />
        </mxCell>
        <mxCell id="72nOnzI87R823NK41PAz-137" style="edgeStyle=orthogonalEdgeStyle;rounded=0;orthogonalLoop=1;jettySize=auto;html=1;exitX=0.5;exitY=1;exitDx=0;exitDy=0;exitPerimeter=0;entryX=1;entryY=0;entryDx=0;entryDy=0;entryPerimeter=0;fillColor=#f8cecc;strokeColor=#b85450;" parent="72nOnzI87R823NK41PAz-1" source="72nOnzI87R823NK41PAz-25" target="72nOnzI87R823NK41PAz-34" edge="1">
          <mxGeometry relative="1" as="geometry" />
        </mxCell>
        <mxCell id="72nOnzI87R823NK41PAz-25" value="" style="shape=mxgraph.cisco.computers_and_peripherals.workstation;sketch=0;html=1;pointerEvents=1;dashed=0;fillColor=#036897;strokeColor=#ffffff;strokeWidth=2;verticalLabelPosition=bottom;verticalAlign=top;align=center;outlineConnect=0;direction=east;" parent="72nOnzI87R823NK41PAz-1" vertex="1">
          <mxGeometry x="302.5" y="60" width="70" height="60" as="geometry" />
        </mxCell>
        <mxCell id="72nOnzI87R823NK41PAz-53" value="32-91 PCPOJ" style="text;html=1;strokeColor=none;fillColor=none;align=center;verticalAlign=middle;whiteSpace=wrap;rounded=0;direction=east;" parent="72nOnzI87R823NK41PAz-1" vertex="1">
          <mxGeometry x="210" y="75" width="60" height="30" as="geometry" />
        </mxCell>
        <mxCell id="72nOnzI87R823NK41PAz-136" style="edgeStyle=orthogonalEdgeStyle;rounded=0;orthogonalLoop=1;jettySize=auto;html=1;exitX=1;exitY=0.75;exitDx=0;exitDy=0;entryX=0.11;entryY=0.5;entryDx=0;entryDy=0;entryPerimeter=0;" parent="72nOnzI87R823NK41PAz-1" source="72nOnzI87R823NK41PAz-53" target="72nOnzI87R823NK41PAz-25" edge="1">
          <mxGeometry relative="1" as="geometry" />
        </mxCell>
        <mxCell id="72nOnzI87R823NK41PAz-178" value="" style="rounded=0;whiteSpace=wrap;html=1;fillColor=#dae8fc;strokeColor=#6c8ebf;direction=east;" parent="72nOnzI87R823NK41PAz-1" vertex="1">
          <mxGeometry x="650" y="50" width="120" height="130" as="geometry" />
        </mxCell>
        <mxCell id="72nOnzI87R823NK41PAz-39" value="" style="shape=mxgraph.cisco.computers_and_peripherals.workstation;sketch=0;html=1;pointerEvents=1;dashed=0;fillColor=#036897;strokeColor=#ffffff;strokeWidth=2;verticalLabelPosition=bottom;verticalAlign=top;align=center;outlineConnect=0;direction=east;" parent="72nOnzI87R823NK41PAz-1" vertex="1">
          <mxGeometry x="660" y="60" width="70" height="60" as="geometry" />
        </mxCell>
        <mxCell id="72nOnzI87R823NK41PAz-141" style="edgeStyle=orthogonalEdgeStyle;rounded=0;orthogonalLoop=1;jettySize=auto;html=1;exitX=0.5;exitY=0;exitDx=0;exitDy=0;entryX=0.815;entryY=1;entryDx=0;entryDy=0;entryPerimeter=0;" parent="72nOnzI87R823NK41PAz-1" source="72nOnzI87R823NK41PAz-59" target="72nOnzI87R823NK41PAz-39" edge="1">
          <mxGeometry relative="1" as="geometry" />
        </mxCell>
        <mxCell id="72nOnzI87R823NK41PAz-63" style="edgeStyle=orthogonalEdgeStyle;rounded=0;orthogonalLoop=1;jettySize=auto;html=1;exitX=0.5;exitY=1;exitDx=0;exitDy=0;exitPerimeter=0;entryX=0;entryY=0.5;entryDx=0;entryDy=0;entryPerimeter=0;fillColor=#f8cecc;strokeColor=#b85450;" parent="72nOnzI87R823NK41PAz-1" source="72nOnzI87R823NK41PAz-39" target="72nOnzI87R823NK41PAz-37" edge="1">
          <mxGeometry relative="1" as="geometry" />
        </mxCell>
        <mxCell id="72nOnzI87R823NK41PAz-59" value="36-51 PCN" style="text;html=1;strokeColor=none;fillColor=none;align=center;verticalAlign=middle;whiteSpace=wrap;rounded=0;direction=east;" parent="72nOnzI87R823NK41PAz-1" vertex="1">
          <mxGeometry x="700" y="140" width="60" height="30" as="geometry" />
        </mxCell>
        <mxCell id="72nOnzI87R823NK41PAz-179" value="" style="rounded=0;whiteSpace=wrap;html=1;fillColor=#ffe6cc;strokeColor=#d79b00;direction=east;" parent="72nOnzI87R823NK41PAz-1" vertex="1">
          <mxGeometry x="770" y="50" width="140" height="130" as="geometry" />
        </mxCell>
        <mxCell id="72nOnzI87R823NK41PAz-40" value="" style="shape=mxgraph.cisco.computers_and_peripherals.workstation;sketch=0;html=1;pointerEvents=1;dashed=0;fillColor=#036897;strokeColor=#ffffff;strokeWidth=2;verticalLabelPosition=bottom;verticalAlign=top;align=center;outlineConnect=0;direction=east;" parent="72nOnzI87R823NK41PAz-1" vertex="1">
          <mxGeometry x="805.5" y="60" width="70" height="60" as="geometry" />
        </mxCell>
        <mxCell id="72nOnzI87R823NK41PAz-60" value="48-79 PCP" style="text;html=1;strokeColor=none;fillColor=none;align=center;verticalAlign=middle;whiteSpace=wrap;rounded=0;direction=east;" parent="72nOnzI87R823NK41PAz-1" vertex="1">
          <mxGeometry x="855" y="130" width="60" height="30" as="geometry" />
        </mxCell>
        <mxCell id="72nOnzI87R823NK41PAz-65" style="edgeStyle=orthogonalEdgeStyle;rounded=0;orthogonalLoop=1;jettySize=auto;html=1;fillColor=#f8cecc;strokeColor=#b85450;exitX=0.5;exitY=1;exitDx=0;exitDy=0;exitPerimeter=0;" parent="72nOnzI87R823NK41PAz-1" source="72nOnzI87R823NK41PAz-40" target="72nOnzI87R823NK41PAz-37" edge="1">
          <mxGeometry relative="1" as="geometry" />
        </mxCell>
        <mxCell id="72nOnzI87R823NK41PAz-142" style="edgeStyle=orthogonalEdgeStyle;rounded=0;orthogonalLoop=1;jettySize=auto;html=1;exitX=0.75;exitY=0;exitDx=0;exitDy=0;entryX=0.755;entryY=0.5;entryDx=0;entryDy=0;entryPerimeter=0;" parent="72nOnzI87R823NK41PAz-1" source="72nOnzI87R823NK41PAz-60" target="72nOnzI87R823NK41PAz-40" edge="1">
          <mxGeometry relative="1" as="geometry" />
        </mxCell>
        <mxCell id="72nOnzI87R823NK41PAz-180" value="" style="rounded=0;whiteSpace=wrap;html=1;fillColor=#d5e8d4;strokeColor=#82b366;direction=east;" parent="72nOnzI87R823NK41PAz-1" vertex="1">
          <mxGeometry x="911" y="50" width="139" height="130" as="geometry" />
        </mxCell>
        <mxCell id="72nOnzI87R823NK41PAz-41" value="" style="shape=mxgraph.cisco.computers_and_peripherals.workstation;sketch=0;html=1;pointerEvents=1;dashed=0;fillColor=#036897;strokeColor=#ffffff;strokeWidth=2;verticalLabelPosition=bottom;verticalAlign=top;align=center;outlineConnect=0;direction=east;" parent="72nOnzI87R823NK41PAz-1" vertex="1">
          <mxGeometry x="932" y="75" width="70" height="60" as="geometry" />
        </mxCell>
        <mxCell id="72nOnzI87R823NK41PAz-61" value="92-98 PCPOJ" style="text;html=1;strokeColor=none;fillColor=none;align=center;verticalAlign=middle;whiteSpace=wrap;rounded=0;direction=east;" parent="72nOnzI87R823NK41PAz-1" vertex="1">
          <mxGeometry x="980" y="135" width="60" height="30" as="geometry" />
        </mxCell>
        <mxCell id="72nOnzI87R823NK41PAz-64" style="edgeStyle=orthogonalEdgeStyle;rounded=0;orthogonalLoop=1;jettySize=auto;html=1;exitX=0.5;exitY=1;exitDx=0;exitDy=0;exitPerimeter=0;entryX=0.98;entryY=0.5;entryDx=0;entryDy=0;entryPerimeter=0;fillColor=#f8cecc;strokeColor=#b85450;" parent="72nOnzI87R823NK41PAz-1" source="72nOnzI87R823NK41PAz-41" target="72nOnzI87R823NK41PAz-37" edge="1">
          <mxGeometry relative="1" as="geometry" />
        </mxCell>
        <mxCell id="72nOnzI87R823NK41PAz-143" style="edgeStyle=orthogonalEdgeStyle;rounded=0;orthogonalLoop=1;jettySize=auto;html=1;exitX=0.75;exitY=0;exitDx=0;exitDy=0;entryX=0.755;entryY=0.5;entryDx=0;entryDy=0;entryPerimeter=0;" parent="72nOnzI87R823NK41PAz-1" source="72nOnzI87R823NK41PAz-61" target="72nOnzI87R823NK41PAz-41" edge="1">
          <mxGeometry relative="1" as="geometry" />
        </mxCell>
        <mxCell id="72nOnzI87R823NK41PAz-181" value="" style="whiteSpace=wrap;html=1;aspect=fixed;fillColor=#f8cecc;strokeColor=#b85450;direction=east;" parent="72nOnzI87R823NK41PAz-1" vertex="1">
          <mxGeometry x="253" y="267.5" width="80" height="80" as="geometry" />
        </mxCell>
        <mxCell id="72nOnzI87R823NK41PAz-57" value="" style="points=[[0.22,0.185,0],[0.5,0,0],[0.78,0.185,0],[0.975,0.49,0],[1,0.73,0],[0.975,0.97,0],[0.5,1,0],[0.025,0.97,0],[0,0.73,0],[0.025,0.49,0]];verticalLabelPosition=bottom;sketch=0;html=1;verticalAlign=top;aspect=fixed;align=center;pointerEvents=1;shape=mxgraph.cisco19.printer;fillColor=#005073;strokeColor=none;direction=east;" parent="72nOnzI87R823NK41PAz-1" vertex="1">
          <mxGeometry x="268" y="285" width="50" height="45" as="geometry" />
        </mxCell>
        <mxCell id="72nOnzI87R823NK41PAz-58" style="edgeStyle=orthogonalEdgeStyle;rounded=0;orthogonalLoop=1;jettySize=auto;html=1;exitX=0.5;exitY=0;exitDx=0;exitDy=0;exitPerimeter=0;entryX=0.98;entryY=0.5;entryDx=0;entryDy=0;entryPerimeter=0;fillColor=#f8cecc;strokeColor=#b85450;" parent="72nOnzI87R823NK41PAz-1" source="72nOnzI87R823NK41PAz-57" target="72nOnzI87R823NK41PAz-34" edge="1">
          <mxGeometry relative="1" as="geometry" />
        </mxCell>
        <mxCell id="72nOnzI87R823NK41PAz-182" value="" style="whiteSpace=wrap;html=1;aspect=fixed;fillColor=#f8cecc;strokeColor=#b85450;direction=east;" parent="72nOnzI87R823NK41PAz-1" vertex="1">
          <mxGeometry x="675" y="312.5" width="80" height="80" as="geometry" />
        </mxCell>
        <mxCell id="72nOnzI87R823NK41PAz-76" value="" style="points=[[0.22,0.185,0],[0.5,0,0],[0.78,0.185,0],[0.975,0.49,0],[1,0.73,0],[0.975,0.97,0],[0.5,1,0],[0.025,0.97,0],[0,0.73,0],[0.025,0.49,0]];verticalLabelPosition=bottom;sketch=0;html=1;verticalAlign=top;aspect=fixed;align=center;pointerEvents=1;shape=mxgraph.cisco19.printer;fillColor=#005073;strokeColor=none;direction=east;" parent="72nOnzI87R823NK41PAz-1" vertex="1">
          <mxGeometry x="689" y="330" width="50" height="45" as="geometry" />
        </mxCell>
        <mxCell id="72nOnzI87R823NK41PAz-79" style="edgeStyle=orthogonalEdgeStyle;rounded=0;orthogonalLoop=1;jettySize=auto;html=1;exitX=0.5;exitY=0;exitDx=0;exitDy=0;exitPerimeter=0;entryX=0;entryY=0.98;entryDx=0;entryDy=0;entryPerimeter=0;fillColor=#f8cecc;strokeColor=#b85450;" parent="72nOnzI87R823NK41PAz-1" source="72nOnzI87R823NK41PAz-76" target="72nOnzI87R823NK41PAz-37" edge="1">
          <mxGeometry relative="1" as="geometry" />
        </mxCell>
        <mxCell id="72nOnzI87R823NK41PAz-177" style="edgeStyle=orthogonalEdgeStyle;rounded=0;orthogonalLoop=1;jettySize=auto;html=1;exitX=0.5;exitY=0;exitDx=0;exitDy=0;entryX=0.697;entryY=1.048;entryDx=0;entryDy=0;entryPerimeter=0;" parent="72nOnzI87R823NK41PAz-1" source="72nOnzI87R823NK41PAz-78" target="72nOnzI87R823NK41PAz-76" edge="1">
          <mxGeometry relative="1" as="geometry" />
        </mxCell>
        <mxCell id="72nOnzI87R823NK41PAz-183" value="" style="rounded=0;whiteSpace=wrap;html=1;fillColor=#ffe6cc;strokeColor=#d79b00;direction=east;" parent="72nOnzI87R823NK41PAz-1" vertex="1">
          <mxGeometry x="169" y="940" width="143.5" height="110" as="geometry" />
        </mxCell>
        <mxCell id="72nOnzI87R823NK41PAz-43" value="" style="shape=mxgraph.cisco.computers_and_peripherals.workstation;sketch=0;html=1;pointerEvents=1;dashed=0;fillColor=#036897;strokeColor=#ffffff;strokeWidth=2;verticalLabelPosition=bottom;verticalAlign=top;align=center;outlineConnect=0;direction=east;" parent="72nOnzI87R823NK41PAz-1" vertex="1">
          <mxGeometry x="183" y="940" width="70" height="60" as="geometry" />
        </mxCell>
        <mxCell id="72nOnzI87R823NK41PAz-87" style="edgeStyle=orthogonalEdgeStyle;rounded=0;orthogonalLoop=1;jettySize=auto;html=1;exitX=0.19;exitY=0.02;exitDx=0;exitDy=0;exitPerimeter=0;entryX=0;entryY=0.98;entryDx=0;entryDy=0;entryPerimeter=0;fillColor=#f8cecc;strokeColor=#b85450;" parent="72nOnzI87R823NK41PAz-1" source="72nOnzI87R823NK41PAz-43" target="72nOnzI87R823NK41PAz-36" edge="1">
          <mxGeometry relative="1" as="geometry" />
        </mxCell>
        <mxCell id="72nOnzI87R823NK41PAz-147" style="edgeStyle=orthogonalEdgeStyle;rounded=0;orthogonalLoop=1;jettySize=auto;html=1;exitX=0.75;exitY=0;exitDx=0;exitDy=0;entryX=0.755;entryY=0.5;entryDx=0;entryDy=0;entryPerimeter=0;" parent="72nOnzI87R823NK41PAz-1" source="72nOnzI87R823NK41PAz-82" target="72nOnzI87R823NK41PAz-43" edge="1">
          <mxGeometry relative="1" as="geometry" />
        </mxCell>
        <mxCell id="72nOnzI87R823NK41PAz-82" value="80-113 PCP" style="text;html=1;strokeColor=none;fillColor=none;align=center;verticalAlign=middle;whiteSpace=wrap;rounded=0;direction=east;" parent="72nOnzI87R823NK41PAz-1" vertex="1">
          <mxGeometry x="247.5" y="1010" width="60" height="30" as="geometry" />
        </mxCell>
        <mxCell id="72nOnzI87R823NK41PAz-187" value="" style="rounded=0;whiteSpace=wrap;html=1;fillColor=#dae8fc;strokeColor=#6c8ebf;direction=east;" parent="72nOnzI87R823NK41PAz-1" vertex="1">
          <mxGeometry x="46.5" y="945" width="120" height="130" as="geometry" />
        </mxCell>
        <mxCell id="72nOnzI87R823NK41PAz-88" style="edgeStyle=orthogonalEdgeStyle;rounded=0;orthogonalLoop=1;jettySize=auto;html=1;fillColor=#f8cecc;strokeColor=#b85450;entryX=0;entryY=0.5;entryDx=0;entryDy=0;entryPerimeter=0;" parent="72nOnzI87R823NK41PAz-1" source="72nOnzI87R823NK41PAz-42" target="72nOnzI87R823NK41PAz-36" edge="1">
          <mxGeometry relative="1" as="geometry" />
        </mxCell>
        <mxCell id="72nOnzI87R823NK41PAz-42" value="" style="shape=mxgraph.cisco.computers_and_peripherals.workstation;sketch=0;html=1;pointerEvents=1;dashed=0;fillColor=#036897;strokeColor=#ffffff;strokeWidth=2;verticalLabelPosition=bottom;verticalAlign=top;align=center;outlineConnect=0;direction=east;" parent="72nOnzI87R823NK41PAz-1" vertex="1">
          <mxGeometry x="57.5" y="950" width="70" height="60" as="geometry" />
        </mxCell>
        <mxCell id="72nOnzI87R823NK41PAz-148" style="edgeStyle=orthogonalEdgeStyle;rounded=0;orthogonalLoop=1;jettySize=auto;html=1;exitX=0;exitY=0;exitDx=0;exitDy=0;entryX=0;entryY=1;entryDx=0;entryDy=0;entryPerimeter=0;" parent="72nOnzI87R823NK41PAz-1" source="72nOnzI87R823NK41PAz-80" target="72nOnzI87R823NK41PAz-42" edge="1">
          <mxGeometry relative="1" as="geometry" />
        </mxCell>
        <mxCell id="72nOnzI87R823NK41PAz-80" value="51-106 PCN" style="text;html=1;strokeColor=none;fillColor=none;align=center;verticalAlign=middle;whiteSpace=wrap;rounded=0;direction=east;" parent="72nOnzI87R823NK41PAz-1" vertex="1">
          <mxGeometry x="90" y="1040" width="60" height="30" as="geometry" />
        </mxCell>
        <mxCell id="72nOnzI87R823NK41PAz-188" value="" style="rounded=0;whiteSpace=wrap;html=1;fillColor=#d5e8d4;strokeColor=#82b366;direction=east;" parent="72nOnzI87R823NK41PAz-1" vertex="1">
          <mxGeometry x="312.5" y="930" width="147.5" height="100" as="geometry" />
        </mxCell>
        <mxCell id="72nOnzI87R823NK41PAz-44" value="" style="shape=mxgraph.cisco.computers_and_peripherals.workstation;sketch=0;html=1;pointerEvents=1;dashed=0;fillColor=#036897;strokeColor=#ffffff;strokeWidth=2;verticalLabelPosition=bottom;verticalAlign=top;align=center;outlineConnect=0;direction=east;" parent="72nOnzI87R823NK41PAz-1" vertex="1">
          <mxGeometry x="333" y="945" width="70" height="60" as="geometry" />
        </mxCell>
        <mxCell id="72nOnzI87R823NK41PAz-86" style="edgeStyle=orthogonalEdgeStyle;rounded=0;orthogonalLoop=1;jettySize=auto;html=1;exitX=0.19;exitY=0.02;exitDx=0;exitDy=0;exitPerimeter=0;entryX=0.87;entryY=0.74;entryDx=0;entryDy=0;entryPerimeter=0;fillColor=#f8cecc;strokeColor=#b85450;" parent="72nOnzI87R823NK41PAz-1" source="72nOnzI87R823NK41PAz-44" target="72nOnzI87R823NK41PAz-36" edge="1">
          <mxGeometry relative="1" as="geometry">
            <Array as="points">
              <mxPoint x="346" y="900" />
              <mxPoint x="245" y="900" />
            </Array>
          </mxGeometry>
        </mxCell>
        <mxCell id="72nOnzI87R823NK41PAz-145" style="edgeStyle=orthogonalEdgeStyle;rounded=0;orthogonalLoop=1;jettySize=auto;html=1;exitX=0.5;exitY=0;exitDx=0;exitDy=0;" parent="72nOnzI87R823NK41PAz-1" source="72nOnzI87R823NK41PAz-83" target="72nOnzI87R823NK41PAz-44" edge="1">
          <mxGeometry relative="1" as="geometry">
            <Array as="points">
              <mxPoint x="412" y="980" />
            </Array>
          </mxGeometry>
        </mxCell>
        <mxCell id="72nOnzI87R823NK41PAz-83" value="99-104 PCPOJ" style="text;html=1;strokeColor=none;fillColor=none;align=center;verticalAlign=middle;whiteSpace=wrap;rounded=0;direction=east;" parent="72nOnzI87R823NK41PAz-1" vertex="1">
          <mxGeometry x="382.5" y="1000" width="60" height="30" as="geometry" />
        </mxCell>
        <mxCell id="72nOnzI87R823NK41PAz-191" value="" style="whiteSpace=wrap;html=1;aspect=fixed;fillColor=#f8cecc;strokeColor=#b85450;direction=east;" parent="72nOnzI87R823NK41PAz-1" vertex="1">
          <mxGeometry x="297.5" y="722.5" width="80" height="80" as="geometry" />
        </mxCell>
        <mxCell id="72nOnzI87R823NK41PAz-89" value="" style="points=[[0.22,0.185,0],[0.5,0,0],[0.78,0.185,0],[0.975,0.49,0],[1,0.73,0],[0.975,0.97,0],[0.5,1,0],[0.025,0.97,0],[0,0.73,0],[0.025,0.49,0]];verticalLabelPosition=bottom;sketch=0;html=1;verticalAlign=top;aspect=fixed;align=center;pointerEvents=1;shape=mxgraph.cisco19.printer;fillColor=#005073;strokeColor=none;direction=east;" parent="72nOnzI87R823NK41PAz-1" vertex="1">
          <mxGeometry x="312.5" y="735" width="50" height="45" as="geometry" />
        </mxCell>
        <mxCell id="72nOnzI87R823NK41PAz-91" style="edgeStyle=orthogonalEdgeStyle;rounded=0;orthogonalLoop=1;jettySize=auto;html=1;exitX=0.5;exitY=1;exitDx=0;exitDy=0;exitPerimeter=0;entryX=1;entryY=0;entryDx=0;entryDy=0;entryPerimeter=0;fillColor=#f8cecc;strokeColor=#b85450;" parent="72nOnzI87R823NK41PAz-1" source="72nOnzI87R823NK41PAz-89" target="72nOnzI87R823NK41PAz-36" edge="1">
          <mxGeometry relative="1" as="geometry" />
        </mxCell>
        <mxCell id="72nOnzI87R823NK41PAz-193" value="" style="rounded=0;whiteSpace=wrap;html=1;fillColor=#dae8fc;strokeColor=#6c8ebf;direction=east;" parent="72nOnzI87R823NK41PAz-1" vertex="1">
          <mxGeometry x="607.5" y="920" width="162.5" height="130" as="geometry" />
        </mxCell>
        <mxCell id="72nOnzI87R823NK41PAz-45" value="" style="shape=mxgraph.cisco.computers_and_peripherals.workstation;sketch=0;html=1;pointerEvents=1;dashed=0;fillColor=#036897;strokeColor=#ffffff;strokeWidth=2;verticalLabelPosition=bottom;verticalAlign=top;align=center;outlineConnect=0;direction=east;" parent="72nOnzI87R823NK41PAz-1" vertex="1">
          <mxGeometry x="619" y="930" width="70" height="60" as="geometry" />
        </mxCell>
        <mxCell id="72nOnzI87R823NK41PAz-95" style="edgeStyle=orthogonalEdgeStyle;rounded=0;orthogonalLoop=1;jettySize=auto;html=1;exitX=0.755;exitY=0;exitDx=0;exitDy=0;exitPerimeter=0;entryX=0;entryY=0.98;entryDx=0;entryDy=0;entryPerimeter=0;fillColor=#f8cecc;strokeColor=#b85450;" parent="72nOnzI87R823NK41PAz-1" source="72nOnzI87R823NK41PAz-45" target="72nOnzI87R823NK41PAz-38" edge="1">
          <mxGeometry relative="1" as="geometry" />
        </mxCell>
        <mxCell id="72nOnzI87R823NK41PAz-196" style="edgeStyle=orthogonalEdgeStyle;rounded=0;orthogonalLoop=1;jettySize=auto;html=1;exitX=0;exitY=0.5;exitDx=0;exitDy=0;" parent="72nOnzI87R823NK41PAz-1" source="72nOnzI87R823NK41PAz-92" target="72nOnzI87R823NK41PAz-45" edge="1">
          <mxGeometry relative="1" as="geometry" />
        </mxCell>
        <mxCell id="72nOnzI87R823NK41PAz-92" value="107-132 PCN" style="text;html=1;strokeColor=none;fillColor=none;align=center;verticalAlign=middle;whiteSpace=wrap;rounded=0;direction=east;" parent="72nOnzI87R823NK41PAz-1" vertex="1">
          <mxGeometry x="679" y="995" width="60" height="30" as="geometry" />
        </mxCell>
        <mxCell id="72nOnzI87R823NK41PAz-197" value="" style="rounded=0;whiteSpace=wrap;html=1;fillColor=#ffe6cc;strokeColor=#d79b00;direction=east;" parent="72nOnzI87R823NK41PAz-1" vertex="1">
          <mxGeometry x="793.75" y="930" width="143.5" height="110" as="geometry" />
        </mxCell>
        <mxCell id="72nOnzI87R823NK41PAz-46" value="" style="shape=mxgraph.cisco.computers_and_peripherals.workstation;sketch=0;html=1;pointerEvents=1;dashed=0;fillColor=#036897;strokeColor=#ffffff;strokeWidth=2;verticalLabelPosition=bottom;verticalAlign=top;align=center;outlineConnect=0;direction=east;" parent="72nOnzI87R823NK41PAz-1" vertex="1">
          <mxGeometry x="800.5" y="940" width="70" height="60" as="geometry" />
        </mxCell>
        <mxCell id="72nOnzI87R823NK41PAz-96" style="edgeStyle=orthogonalEdgeStyle;rounded=0;orthogonalLoop=1;jettySize=auto;html=1;exitX=0.755;exitY=0;exitDx=0;exitDy=0;exitPerimeter=0;entryX=0.5;entryY=0.98;entryDx=0;entryDy=0;entryPerimeter=0;fillColor=#f8cecc;strokeColor=#b85450;" parent="72nOnzI87R823NK41PAz-1" source="72nOnzI87R823NK41PAz-46" target="72nOnzI87R823NK41PAz-38" edge="1">
          <mxGeometry relative="1" as="geometry" />
        </mxCell>
        <mxCell id="72nOnzI87R823NK41PAz-199" style="edgeStyle=orthogonalEdgeStyle;rounded=0;orthogonalLoop=1;jettySize=auto;html=1;exitX=0;exitY=0.5;exitDx=0;exitDy=0;" parent="72nOnzI87R823NK41PAz-1" source="72nOnzI87R823NK41PAz-93" target="72nOnzI87R823NK41PAz-46" edge="1">
          <mxGeometry relative="1" as="geometry" />
        </mxCell>
        <mxCell id="72nOnzI87R823NK41PAz-93" value="114-135 PCP" style="text;html=1;strokeColor=none;fillColor=none;align=center;verticalAlign=middle;whiteSpace=wrap;rounded=0;direction=east;" parent="72nOnzI87R823NK41PAz-1" vertex="1">
          <mxGeometry x="865" y="1000" width="60" height="30" as="geometry" />
        </mxCell>
        <mxCell id="72nOnzI87R823NK41PAz-200" value="" style="rounded=0;whiteSpace=wrap;html=1;fillColor=#d5e8d4;strokeColor=#82b366;direction=east;" parent="72nOnzI87R823NK41PAz-1" vertex="1">
          <mxGeometry x="945.5" y="915" width="139" height="130" as="geometry" />
        </mxCell>
        <mxCell id="72nOnzI87R823NK41PAz-47" value="" style="shape=mxgraph.cisco.computers_and_peripherals.workstation;sketch=0;html=1;pointerEvents=1;dashed=0;fillColor=#036897;strokeColor=#ffffff;strokeWidth=2;verticalLabelPosition=bottom;verticalAlign=top;align=center;outlineConnect=0;direction=east;" parent="72nOnzI87R823NK41PAz-1" vertex="1">
          <mxGeometry x="960" y="930" width="70" height="60" as="geometry" />
        </mxCell>
        <mxCell id="72nOnzI87R823NK41PAz-97" style="edgeStyle=orthogonalEdgeStyle;rounded=0;orthogonalLoop=1;jettySize=auto;html=1;exitX=0.19;exitY=0.02;exitDx=0;exitDy=0;exitPerimeter=0;entryX=0.98;entryY=0.5;entryDx=0;entryDy=0;entryPerimeter=0;fillColor=#f8cecc;strokeColor=#b85450;" parent="72nOnzI87R823NK41PAz-1" source="72nOnzI87R823NK41PAz-47" target="72nOnzI87R823NK41PAz-38" edge="1">
          <mxGeometry relative="1" as="geometry">
            <Array as="points">
              <mxPoint x="960" y="921" />
              <mxPoint x="960" y="870" />
              <mxPoint x="914" y="870" />
            </Array>
          </mxGeometry>
        </mxCell>
        <mxCell id="72nOnzI87R823NK41PAz-201" style="edgeStyle=orthogonalEdgeStyle;rounded=0;orthogonalLoop=1;jettySize=auto;html=1;exitX=0;exitY=0.5;exitDx=0;exitDy=0;" parent="72nOnzI87R823NK41PAz-1" source="72nOnzI87R823NK41PAz-94" target="72nOnzI87R823NK41PAz-47" edge="1">
          <mxGeometry relative="1" as="geometry" />
        </mxCell>
        <mxCell id="72nOnzI87R823NK41PAz-94" value="105-132 PCPOJ" style="text;html=1;strokeColor=none;fillColor=none;align=center;verticalAlign=middle;whiteSpace=wrap;rounded=0;direction=east;" parent="72nOnzI87R823NK41PAz-1" vertex="1">
          <mxGeometry x="1020" y="995" width="60" height="30" as="geometry" />
        </mxCell>
        <mxCell id="72nOnzI87R823NK41PAz-202" value="" style="whiteSpace=wrap;html=1;aspect=fixed;fillColor=#f8cecc;strokeColor=#b85450;direction=east;" parent="72nOnzI87R823NK41PAz-1" vertex="1">
          <mxGeometry x="985" y="713.75" width="87.5" height="87.5" as="geometry" />
        </mxCell>
        <mxCell id="72nOnzI87R823NK41PAz-100" style="edgeStyle=orthogonalEdgeStyle;rounded=0;orthogonalLoop=1;jettySize=auto;html=1;exitX=0.5;exitY=1;exitDx=0;exitDy=0;exitPerimeter=0;entryX=1;entryY=0;entryDx=0;entryDy=0;entryPerimeter=0;fillColor=#f8cecc;strokeColor=#b85450;" parent="72nOnzI87R823NK41PAz-1" source="72nOnzI87R823NK41PAz-98" target="72nOnzI87R823NK41PAz-38" edge="1">
          <mxGeometry relative="1" as="geometry" />
        </mxCell>
        <mxCell id="72nOnzI87R823NK41PAz-98" value="`" style="points=[[0.22,0.185,0],[0.5,0,0],[0.78,0.185,0],[0.975,0.49,0],[1,0.73,0],[0.975,0.97,0],[0.5,1,0],[0.025,0.97,0],[0,0.73,0],[0.025,0.49,0]];verticalLabelPosition=bottom;sketch=0;html=1;verticalAlign=top;aspect=fixed;align=center;pointerEvents=1;shape=mxgraph.cisco19.printer;fillColor=#005073;strokeColor=none;direction=east;" parent="72nOnzI87R823NK41PAz-1" vertex="1">
          <mxGeometry x="1000" y="735" width="50" height="45" as="geometry" />
        </mxCell>
        <mxCell id="72nOnzI87R823NK41PAz-152" value="" style="edgeStyle=orthogonalEdgeStyle;rounded=0;orthogonalLoop=1;jettySize=auto;html=1;" parent="72nOnzI87R823NK41PAz-1" source="72nOnzI87R823NK41PAz-99" target="72nOnzI87R823NK41PAz-98" edge="1">
          <mxGeometry relative="1" as="geometry" />
        </mxCell>
        <mxCell id="72nOnzI87R823NK41PAz-221" value="7 24-Portowych Switchy" style="text;html=1;strokeColor=none;fillColor=none;align=center;verticalAlign=middle;whiteSpace=wrap;rounded=0;direction=east;" parent="72nOnzI87R823NK41PAz-1" vertex="1">
          <mxGeometry x="177.5" y="255" width="60" height="30" as="geometry" />
        </mxCell>
        <mxCell id="72nOnzI87R823NK41PAz-222" style="edgeStyle=orthogonalEdgeStyle;rounded=0;orthogonalLoop=1;jettySize=auto;html=1;exitX=0.5;exitY=0;exitDx=0;exitDy=0;entryX=0.5;entryY=0.98;entryDx=0;entryDy=0;entryPerimeter=0;" parent="72nOnzI87R823NK41PAz-1" source="72nOnzI87R823NK41PAz-221" target="72nOnzI87R823NK41PAz-34" edge="1">
          <mxGeometry relative="1" as="geometry" />
        </mxCell>
        <mxCell id="72nOnzI87R823NK41PAz-224" style="edgeStyle=orthogonalEdgeStyle;rounded=0;orthogonalLoop=1;jettySize=auto;html=1;exitX=0.5;exitY=0;exitDx=0;exitDy=0;" parent="72nOnzI87R823NK41PAz-1" source="72nOnzI87R823NK41PAz-223" target="72nOnzI87R823NK41PAz-37" edge="1">
          <mxGeometry relative="1" as="geometry" />
        </mxCell>
        <mxCell id="72nOnzI87R823NK41PAz-223" value="6 24-Portowych Switchy" style="text;html=1;strokeColor=none;fillColor=none;align=center;verticalAlign=middle;whiteSpace=wrap;rounded=0;direction=east;" parent="72nOnzI87R823NK41PAz-1" vertex="1">
          <mxGeometry x="810" y="325" width="60" height="30" as="geometry" />
        </mxCell>
        <mxCell id="72nOnzI87R823NK41PAz-226" style="edgeStyle=orthogonalEdgeStyle;rounded=0;orthogonalLoop=1;jettySize=auto;html=1;exitX=0.75;exitY=1;exitDx=0;exitDy=0;" parent="72nOnzI87R823NK41PAz-1" source="72nOnzI87R823NK41PAz-225" target="72nOnzI87R823NK41PAz-36" edge="1">
          <mxGeometry relative="1" as="geometry" />
        </mxCell>
        <mxCell id="72nOnzI87R823NK41PAz-225" value="7 24-Portowych Switchy" style="text;html=1;strokeColor=none;fillColor=none;align=center;verticalAlign=middle;whiteSpace=wrap;rounded=0;direction=east;" parent="72nOnzI87R823NK41PAz-1" vertex="1">
          <mxGeometry x="127.5" y="750" width="60" height="30" as="geometry" />
        </mxCell>
        <mxCell id="72nOnzI87R823NK41PAz-227" value="7 24-Portowych Switchy" style="text;html=1;strokeColor=none;fillColor=none;align=center;verticalAlign=middle;whiteSpace=wrap;rounded=0;direction=east;" parent="72nOnzI87R823NK41PAz-1" vertex="1">
          <mxGeometry x="700" y="660" width="60" height="30" as="geometry" />
        </mxCell>
        <mxCell id="axHXU9ZMlC0pvxzHEZ1m-3" value="Drukarka 2" style="text;html=1;strokeColor=none;fillColor=none;align=center;verticalAlign=middle;whiteSpace=wrap;rounded=0;direction=east;" parent="72nOnzI87R823NK41PAz-1" vertex="1">
          <mxGeometry x="263" y="337.5" width="60" height="30" as="geometry" />
        </mxCell>
        <mxCell id="axHXU9ZMlC0pvxzHEZ1m-4" value="Server 1" style="text;html=1;strokeColor=none;fillColor=none;align=center;verticalAlign=middle;whiteSpace=wrap;rounded=0;direction=east;" parent="72nOnzI87R823NK41PAz-1" vertex="1">
          <mxGeometry x="46.5" y="520" width="60" height="30" as="geometry" />
        </mxCell>
        <mxCell id="axHXU9ZMlC0pvxzHEZ1m-5" value="Server 2" style="text;html=1;strokeColor=none;fillColor=none;align=center;verticalAlign=middle;whiteSpace=wrap;rounded=0;direction=east;" parent="72nOnzI87R823NK41PAz-1" vertex="1">
          <mxGeometry x="113" y="520" width="60" height="30" as="geometry" />
        </mxCell>
        <mxCell id="axHXU9ZMlC0pvxzHEZ1m-6" value="Drukarka 6" style="text;html=1;strokeColor=none;fillColor=none;align=center;verticalAlign=middle;whiteSpace=wrap;rounded=0;direction=east;" parent="72nOnzI87R823NK41PAz-1" vertex="1">
          <mxGeometry x="302.5" y="810" width="60" height="30" as="geometry" />
        </mxCell>
        <mxCell id="D9AzWVtUxg92JwBk0wAL-6" value="&lt;div&gt;Server FTP&lt;/div&gt;&lt;div&gt;&lt;br&gt;&lt;/div&gt;" style="shape=mxgraph.cisco.servers.fileserver;sketch=0;html=1;pointerEvents=1;dashed=0;fillColor=#036897;strokeColor=#ffffff;strokeWidth=2;verticalLabelPosition=bottom;verticalAlign=top;align=center;outlineConnect=0;direction=east;" parent="72nOnzI87R823NK41PAz-1" vertex="1">
          <mxGeometry x="492" y="68" width="43" height="62" as="geometry" />
        </mxCell>
        <mxCell id="D9AzWVtUxg92JwBk0wAL-7" value="Server WWW" style="shape=mxgraph.cisco.servers.fileserver;sketch=0;html=1;pointerEvents=1;dashed=0;fillColor=#036897;strokeColor=#ffffff;strokeWidth=2;verticalLabelPosition=bottom;verticalAlign=top;align=center;outlineConnect=0;direction=east;" parent="72nOnzI87R823NK41PAz-1" vertex="1">
          <mxGeometry x="535" y="150" width="43" height="62" as="geometry" />
        </mxCell>
        <mxCell id="D9AzWVtUxg92JwBk0wAL-9" style="edgeStyle=orthogonalEdgeStyle;rounded=0;orthogonalLoop=1;jettySize=auto;html=1;exitX=0.95;exitY=0.95;exitDx=0;exitDy=0;exitPerimeter=0;entryX=0.13;entryY=0.08;entryDx=0;entryDy=0;entryPerimeter=0;fillColor=#f8cecc;strokeColor=#b85450;" parent="72nOnzI87R823NK41PAz-1" source="72nOnzI87R823NK41PAz-116" target="D9AzWVtUxg92JwBk0wAL-7" edge="1">
          <mxGeometry relative="1" as="geometry" />
        </mxCell>
        <mxCell id="D9AzWVtUxg92JwBk0wAL-10" value="" style="rounded=0;whiteSpace=wrap;html=1;fillColor=#e1d5e7;strokeColor=#9673a6;direction=east;" parent="72nOnzI87R823NK41PAz-1" vertex="1">
          <mxGeometry x="971" y="212" width="89" height="60" as="geometry" />
        </mxCell>
        <mxCell id="72nOnzI87R823NK41PAz-66" value="" style="points=[[0.03,0.36,0],[0.18,0,0],[0.5,0.34,0],[0.82,0,0],[0.97,0.36,0],[1,0.67,0],[0.975,0.975,0],[0.5,1,0],[0.025,0.975,0],[0,0.67,0]];verticalLabelPosition=bottom;sketch=0;html=1;verticalAlign=top;aspect=fixed;align=center;pointerEvents=1;shape=mxgraph.cisco19.wireless_access_point;fillColor=#005073;strokeColor=none;direction=east;" parent="72nOnzI87R823NK41PAz-1" vertex="1">
          <mxGeometry x="990" y="210" width="50" height="50" as="geometry" />
        </mxCell>
        <mxCell id="72nOnzI87R823NK41PAz-75" style="edgeStyle=orthogonalEdgeStyle;rounded=0;orthogonalLoop=1;jettySize=auto;html=1;exitX=0.025;exitY=0.975;exitDx=0;exitDy=0;exitPerimeter=0;entryX=1.135;entryY=0;entryDx=0;entryDy=0;entryPerimeter=0;" parent="72nOnzI87R823NK41PAz-1" source="72nOnzI87R823NK41PAz-66" target="72nOnzI87R823NK41PAz-72" edge="1">
          <mxGeometry relative="1" as="geometry" />
        </mxCell>
        <mxCell id="72nOnzI87R823NK41PAz-71" style="edgeStyle=orthogonalEdgeStyle;rounded=0;orthogonalLoop=1;jettySize=auto;html=1;exitX=0;exitY=0.67;exitDx=0;exitDy=0;exitPerimeter=0;entryX=0.98;entryY=0.5;entryDx=0;entryDy=0;entryPerimeter=0;fillColor=#f8cecc;strokeColor=#b85450;" parent="72nOnzI87R823NK41PAz-1" source="72nOnzI87R823NK41PAz-66" target="72nOnzI87R823NK41PAz-37" edge="1">
          <mxGeometry relative="1" as="geometry">
            <Array as="points">
              <mxPoint x="920" y="243" />
              <mxPoint x="920" y="255" />
            </Array>
          </mxGeometry>
        </mxCell>
        <mxCell id="72nOnzI87R823NK41PAz-69" value="Access Points 1-3" style="text;html=1;strokeColor=none;fillColor=none;align=center;verticalAlign=middle;whiteSpace=wrap;rounded=0;direction=east;" parent="72nOnzI87R823NK41PAz-1" vertex="1">
          <mxGeometry x="985.5" y="300" width="60" height="30" as="geometry" />
        </mxCell>
        <mxCell id="72nOnzI87R823NK41PAz-70" style="edgeStyle=orthogonalEdgeStyle;rounded=0;orthogonalLoop=1;jettySize=auto;html=1;exitX=0.5;exitY=1;exitDx=0;exitDy=0;exitPerimeter=0;" parent="72nOnzI87R823NK41PAz-1" source="72nOnzI87R823NK41PAz-66" target="72nOnzI87R823NK41PAz-69" edge="1">
          <mxGeometry relative="1" as="geometry" />
        </mxCell>
        <mxCell id="D9AzWVtUxg92JwBk0wAL-13" value="" style="rounded=0;whiteSpace=wrap;html=1;fillColor=#e1d5e7;strokeColor=#9673a6;direction=east;" parent="72nOnzI87R823NK41PAz-1" vertex="1">
          <mxGeometry x="681" y="722.5" width="89" height="60" as="geometry" />
        </mxCell>
        <mxCell id="72nOnzI87R823NK41PAz-101" value="" style="points=[[0.03,0.36,0],[0.18,0,0],[0.5,0.34,0],[0.82,0,0],[0.97,0.36,0],[1,0.67,0],[0.975,0.975,0],[0.5,1,0],[0.025,0.975,0],[0,0.67,0]];verticalLabelPosition=bottom;sketch=0;html=1;verticalAlign=top;aspect=fixed;align=center;pointerEvents=1;shape=mxgraph.cisco19.wireless_access_point;fillColor=#005073;strokeColor=none;direction=east;" parent="72nOnzI87R823NK41PAz-1" vertex="1">
          <mxGeometry x="700" y="722.5" width="50" height="50" as="geometry" />
        </mxCell>
        <mxCell id="72nOnzI87R823NK41PAz-103" style="edgeStyle=orthogonalEdgeStyle;rounded=0;orthogonalLoop=1;jettySize=auto;html=1;exitX=0.975;exitY=0.975;exitDx=0;exitDy=0;exitPerimeter=0;entryX=0;entryY=0.5;entryDx=0;entryDy=0;entryPerimeter=0;fillColor=#f8cecc;strokeColor=#b85450;" parent="72nOnzI87R823NK41PAz-1" source="72nOnzI87R823NK41PAz-101" target="72nOnzI87R823NK41PAz-38" edge="1">
          <mxGeometry relative="1" as="geometry" />
        </mxCell>
        <mxCell id="72nOnzI87R823NK41PAz-155" style="edgeStyle=orthogonalEdgeStyle;rounded=0;orthogonalLoop=1;jettySize=auto;html=1;exitX=0.03;exitY=0.36;exitDx=0;exitDy=0;exitPerimeter=0;entryX=0.69;entryY=0.857;entryDx=0;entryDy=0;entryPerimeter=0;" parent="72nOnzI87R823NK41PAz-1" source="72nOnzI87R823NK41PAz-101" target="72nOnzI87R823NK41PAz-119" edge="1">
          <mxGeometry relative="1" as="geometry" />
        </mxCell>
        <mxCell id="72nOnzI87R823NK41PAz-102" value="Access Pointy 4-5" style="text;html=1;strokeColor=none;fillColor=none;align=center;verticalAlign=middle;whiteSpace=wrap;rounded=0;direction=east;" parent="72nOnzI87R823NK41PAz-1" vertex="1">
          <mxGeometry x="690" y="810" width="60" height="30" as="geometry" />
        </mxCell>
        <mxCell id="72nOnzI87R823NK41PAz-150" style="edgeStyle=orthogonalEdgeStyle;rounded=0;orthogonalLoop=1;jettySize=auto;html=1;exitX=0.5;exitY=0;exitDx=0;exitDy=0;entryX=0.5;entryY=1;entryDx=0;entryDy=0;entryPerimeter=0;" parent="72nOnzI87R823NK41PAz-1" source="72nOnzI87R823NK41PAz-102" target="72nOnzI87R823NK41PAz-101" edge="1">
          <mxGeometry relative="1" as="geometry" />
        </mxCell>
        <mxCell id="CS1l1guYBBBnHL9b0O5B-2" style="edgeStyle=orthogonalEdgeStyle;rounded=0;orthogonalLoop=1;jettySize=auto;html=1;exitX=1;exitY=1;exitDx=0;exitDy=0;entryX=0.16;entryY=0.23;entryDx=0;entryDy=0;entryPerimeter=0;" parent="72nOnzI87R823NK41PAz-1" source="72nOnzI87R823NK41PAz-227" target="72nOnzI87R823NK41PAz-38" edge="1">
          <mxGeometry relative="1" as="geometry">
            <Array as="points">
              <mxPoint x="760" y="700" />
              <mxPoint x="831" y="700" />
            </Array>
          </mxGeometry>
        </mxCell>
        <mxCell id="72nOnzI87R823NK41PAz-204" value="" style="whiteSpace=wrap;html=1;aspect=fixed;fillColor=#f8cecc;strokeColor=#b85450;direction=east;" parent="1" vertex="1">
          <mxGeometry x="375" y="260" width="80" height="80" as="geometry" />
        </mxCell>
        <mxCell id="72nOnzI87R823NK41PAz-107" value="" style="points=[[0.22,0.185,0],[0.5,0,0],[0.78,0.185,0],[0.975,0.49,0],[1,0.73,0],[0.975,0.97,0],[0.5,1,0],[0.025,0.97,0],[0,0.73,0],[0.025,0.49,0]];verticalLabelPosition=bottom;sketch=0;html=1;verticalAlign=top;aspect=fixed;align=center;pointerEvents=1;shape=mxgraph.cisco19.printer;fillColor=#005073;strokeColor=none;direction=east;" parent="1" vertex="1">
          <mxGeometry x="390" y="270" width="50" height="45" as="geometry" />
        </mxCell>
        <mxCell id="72nOnzI87R823NK41PAz-111" style="edgeStyle=orthogonalEdgeStyle;rounded=0;orthogonalLoop=1;jettySize=auto;html=1;exitX=0;exitY=0.73;exitDx=0;exitDy=0;exitPerimeter=0;entryX=0.98;entryY=0.5;entryDx=0;entryDy=0;entryPerimeter=0;fillColor=#f8cecc;strokeColor=#b85450;" parent="1" source="72nOnzI87R823NK41PAz-107" target="72nOnzI87R823NK41PAz-51" edge="1">
          <mxGeometry relative="1" as="geometry" />
        </mxCell>
        <mxCell id="72nOnzI87R823NK41PAz-205" value="" style="rounded=0;whiteSpace=wrap;html=1;fillColor=#dae8fc;strokeColor=#6c8ebf;direction=east;" parent="1" vertex="1">
          <mxGeometry x="40" y="40" width="120" height="130" as="geometry" />
        </mxCell>
        <mxCell id="72nOnzI87R823NK41PAz-48" value="" style="shape=mxgraph.cisco.computers_and_peripherals.workstation;sketch=0;html=1;pointerEvents=1;dashed=0;fillColor=#036897;strokeColor=#ffffff;strokeWidth=2;verticalLabelPosition=bottom;verticalAlign=top;align=center;outlineConnect=0;direction=east;" parent="1" vertex="1">
          <mxGeometry x="50" y="50" width="70" height="60" as="geometry" />
        </mxCell>
        <mxCell id="72nOnzI87R823NK41PAz-108" style="edgeStyle=orthogonalEdgeStyle;rounded=0;orthogonalLoop=1;jettySize=auto;html=1;exitX=0.815;exitY=1;exitDx=0;exitDy=0;exitPerimeter=0;entryX=0.16;entryY=0.23;entryDx=0;entryDy=0;entryPerimeter=0;fillColor=#f8cecc;strokeColor=#b85450;" parent="1" source="72nOnzI87R823NK41PAz-48" target="72nOnzI87R823NK41PAz-51" edge="1">
          <mxGeometry relative="1" as="geometry">
            <Array as="points">
              <mxPoint x="130" y="135" />
              <mxPoint x="130" y="198" />
              <mxPoint x="205" y="198" />
            </Array>
          </mxGeometry>
        </mxCell>
        <mxCell id="72nOnzI87R823NK41PAz-206" value="" style="rounded=0;whiteSpace=wrap;html=1;fillColor=#ffe6cc;strokeColor=#d79b00;direction=east;" parent="1" vertex="1">
          <mxGeometry x="160" y="40" width="143.5" height="130" as="geometry" />
        </mxCell>
        <mxCell id="72nOnzI87R823NK41PAz-49" value="" style="shape=mxgraph.cisco.computers_and_peripherals.workstation;sketch=0;html=1;pointerEvents=1;dashed=0;fillColor=#036897;strokeColor=#ffffff;strokeWidth=2;verticalLabelPosition=bottom;verticalAlign=top;align=center;outlineConnect=0;direction=east;" parent="1" vertex="1">
          <mxGeometry x="180" y="50" width="70" height="60" as="geometry" />
        </mxCell>
        <mxCell id="72nOnzI87R823NK41PAz-109" style="edgeStyle=orthogonalEdgeStyle;rounded=0;orthogonalLoop=1;jettySize=auto;html=1;fillColor=#f8cecc;strokeColor=#b85450;exitX=0.815;exitY=1;exitDx=0;exitDy=0;exitPerimeter=0;" parent="1" source="72nOnzI87R823NK41PAz-49" target="72nOnzI87R823NK41PAz-51" edge="1">
          <mxGeometry relative="1" as="geometry" />
        </mxCell>
        <mxCell id="72nOnzI87R823NK41PAz-132" style="edgeStyle=orthogonalEdgeStyle;rounded=0;orthogonalLoop=1;jettySize=auto;html=1;exitX=0.5;exitY=0;exitDx=0;exitDy=0;entryX=0;entryY=1;entryDx=0;entryDy=0;entryPerimeter=0;" parent="1" source="72nOnzI87R823NK41PAz-105" target="72nOnzI87R823NK41PAz-49" edge="1">
          <mxGeometry relative="1" as="geometry" />
        </mxCell>
        <mxCell id="72nOnzI87R823NK41PAz-105" value="1-26 PCP" style="text;html=1;strokeColor=none;fillColor=none;align=center;verticalAlign=middle;whiteSpace=wrap;rounded=0;direction=east;" parent="1" vertex="1">
          <mxGeometry x="170" y="140" width="60" height="30" as="geometry" />
        </mxCell>
        <mxCell id="72nOnzI87R823NK41PAz-104" value="1-35 PCN" style="text;html=1;strokeColor=none;fillColor=none;align=center;verticalAlign=middle;whiteSpace=wrap;rounded=0;direction=east;" parent="1" vertex="1">
          <mxGeometry x="50" y="140" width="60" height="30" as="geometry" />
        </mxCell>
        <mxCell id="72nOnzI87R823NK41PAz-208" style="edgeStyle=orthogonalEdgeStyle;rounded=0;orthogonalLoop=1;jettySize=auto;html=1;exitX=0;exitY=0;exitDx=0;exitDy=0;entryX=0;entryY=1;entryDx=0;entryDy=0;entryPerimeter=0;" parent="1" source="72nOnzI87R823NK41PAz-104" target="72nOnzI87R823NK41PAz-48" edge="1">
          <mxGeometry relative="1" as="geometry" />
        </mxCell>
        <mxCell id="72nOnzI87R823NK41PAz-209" value="" style="rounded=0;whiteSpace=wrap;html=1;fillColor=#d5e8d4;strokeColor=#82b366;direction=east;" parent="1" vertex="1">
          <mxGeometry x="303.5" y="40" width="180" height="100" as="geometry" />
        </mxCell>
        <mxCell id="72nOnzI87R823NK41PAz-50" value="" style="shape=mxgraph.cisco.computers_and_peripherals.workstation;sketch=0;html=1;pointerEvents=1;dashed=0;fillColor=#036897;strokeColor=#ffffff;strokeWidth=2;verticalLabelPosition=bottom;verticalAlign=top;align=center;outlineConnect=0;direction=east;" parent="1" vertex="1">
          <mxGeometry x="310" y="50" width="70" height="60" as="geometry" />
        </mxCell>
        <mxCell id="72nOnzI87R823NK41PAz-110" style="edgeStyle=orthogonalEdgeStyle;rounded=0;orthogonalLoop=1;jettySize=auto;html=1;exitX=0;exitY=1;exitDx=0;exitDy=0;exitPerimeter=0;entryX=1;entryY=0;entryDx=0;entryDy=0;entryPerimeter=0;fillColor=#f8cecc;strokeColor=#b85450;" parent="1" source="72nOnzI87R823NK41PAz-50" target="72nOnzI87R823NK41PAz-51" edge="1">
          <mxGeometry relative="1" as="geometry" />
        </mxCell>
        <mxCell id="72nOnzI87R823NK41PAz-106" value="1-31 PCPOJ" style="text;html=1;strokeColor=none;fillColor=none;align=center;verticalAlign=middle;whiteSpace=wrap;rounded=0;direction=east;" parent="1" vertex="1">
          <mxGeometry x="380" y="100" width="80" height="30" as="geometry" />
        </mxCell>
        <mxCell id="72nOnzI87R823NK41PAz-211" style="edgeStyle=orthogonalEdgeStyle;rounded=0;orthogonalLoop=1;jettySize=auto;html=1;exitX=0;exitY=0.75;exitDx=0;exitDy=0;entryX=0.5;entryY=1;entryDx=0;entryDy=0;entryPerimeter=0;" parent="1" source="72nOnzI87R823NK41PAz-106" target="72nOnzI87R823NK41PAz-50" edge="1">
          <mxGeometry relative="1" as="geometry" />
        </mxCell>
        <mxCell id="72nOnzI87R823NK41PAz-212" value="&lt;div&gt;&lt;br&gt;&lt;/div&gt;&lt;div&gt;Nieruchomosci&lt;br&gt;&lt;/div&gt;" style="whiteSpace=wrap;html=1;aspect=fixed;fillColor=#dae8fc;strokeColor=#6c8ebf;direction=east;" parent="1" vertex="1">
          <mxGeometry x="70" y="740" width="80" height="80" as="geometry" />
        </mxCell>
        <mxCell id="72nOnzI87R823NK41PAz-214" value="&lt;div&gt;&lt;br&gt;&lt;/div&gt;&lt;div&gt;&lt;br&gt;&lt;/div&gt;&lt;div&gt;Podatki&lt;br&gt;&lt;/div&gt;" style="whiteSpace=wrap;html=1;aspect=fixed;fillColor=#ffe6cc;strokeColor=#d79b00;direction=east;" parent="1" vertex="1">
          <mxGeometry x="180" y="740" width="80" height="80" as="geometry" />
        </mxCell>
        <mxCell id="72nOnzI87R823NK41PAz-215" value="&lt;div&gt;&lt;br&gt;&lt;/div&gt;&lt;div&gt;&lt;br&gt;&lt;/div&gt;&lt;div&gt;Pojazdy&lt;br&gt;&lt;/div&gt;" style="whiteSpace=wrap;html=1;aspect=fixed;fillColor=#d5e8d4;strokeColor=#82b366;direction=east;" parent="1" vertex="1">
          <mxGeometry x="290" y="740" width="80" height="80" as="geometry" />
        </mxCell>
        <mxCell id="72nOnzI87R823NK41PAz-216" value="&lt;div&gt;&lt;br&gt;&lt;/div&gt;&lt;div&gt;&lt;br&gt;&lt;/div&gt;&lt;div&gt;Misc&lt;br&gt;&lt;/div&gt;" style="whiteSpace=wrap;html=1;aspect=fixed;fillColor=#f8cecc;strokeColor=#b85450;direction=east;" parent="1" vertex="1">
          <mxGeometry x="400" y="740" width="80" height="80" as="geometry" />
        </mxCell>
        <mxCell id="72nOnzI87R823NK41PAz-217" value="Vlan 1" style="text;html=1;strokeColor=none;fillColor=none;align=center;verticalAlign=middle;whiteSpace=wrap;rounded=0;direction=east;" parent="1" vertex="1">
          <mxGeometry x="80" y="760" width="60" height="30" as="geometry" />
        </mxCell>
        <mxCell id="72nOnzI87R823NK41PAz-218" value="Vlan 2" style="text;html=1;strokeColor=none;fillColor=none;align=center;verticalAlign=middle;whiteSpace=wrap;rounded=0;direction=east;" parent="1" vertex="1">
          <mxGeometry x="189" y="765" width="60" height="30" as="geometry" />
        </mxCell>
        <mxCell id="72nOnzI87R823NK41PAz-219" value="Vlan 3" style="text;html=1;strokeColor=none;fillColor=none;align=center;verticalAlign=middle;whiteSpace=wrap;rounded=0;direction=east;" parent="1" vertex="1">
          <mxGeometry x="300" y="765" width="60" height="30" as="geometry" />
        </mxCell>
        <mxCell id="72nOnzI87R823NK41PAz-220" value="Vlan 4" style="text;html=1;strokeColor=none;fillColor=none;align=center;verticalAlign=middle;whiteSpace=wrap;rounded=0;direction=east;" parent="1" vertex="1">
          <mxGeometry x="410" y="765" width="60" height="30" as="geometry" />
        </mxCell>
        <mxCell id="CS1l1guYBBBnHL9b0O5B-1" value="7 24-Portowych Switchy" style="text;html=1;strokeColor=none;fillColor=none;align=center;verticalAlign=middle;whiteSpace=wrap;rounded=0;direction=east;" parent="1" vertex="1">
          <mxGeometry x="209.5" y="330" width="60" height="30" as="geometry" />
        </mxCell>
        <mxCell id="CS1l1guYBBBnHL9b0O5B-4" value="" style="line;strokeWidth=1;rotatable=0;dashed=0;labelPosition=right;align=left;verticalAlign=middle;spacingTop=0;spacingLeft=6;points=[];portConstraint=eastwest;fillColor=#f8cecc;strokeColor=#b85450;direction=east;" parent="1" vertex="1">
          <mxGeometry x="140" y="910" width="105" height="30" as="geometry" />
        </mxCell>
        <mxCell id="CS1l1guYBBBnHL9b0O5B-5" value="Kat 6" style="text;html=1;strokeColor=none;fillColor=none;align=center;verticalAlign=middle;whiteSpace=wrap;rounded=0;direction=east;" parent="1" vertex="1">
          <mxGeometry x="185" y="970" width="60" height="30" as="geometry" />
        </mxCell>
        <mxCell id="CS1l1guYBBBnHL9b0O5B-8" style="edgeStyle=orthogonalEdgeStyle;rounded=0;orthogonalLoop=1;jettySize=auto;html=1;exitX=0.5;exitY=0;exitDx=0;exitDy=0;entryX=0.5;entryY=0;entryDx=0;entryDy=0;" parent="1" source="CS1l1guYBBBnHL9b0O5B-5" edge="1">
          <mxGeometry relative="1" as="geometry">
            <mxPoint x="215" y="930" as="targetPoint" />
            <Array as="points">
              <mxPoint x="215" y="937" />
            </Array>
          </mxGeometry>
        </mxCell>
        <mxCell id="axHXU9ZMlC0pvxzHEZ1m-1" value="Drukarka 1" style="text;html=1;strokeColor=none;fillColor=none;align=center;verticalAlign=middle;whiteSpace=wrap;rounded=0;direction=east;" parent="1" vertex="1">
          <mxGeometry x="385" y="330" width="60" height="30" as="geometry" />
        </mxCell>
        <mxCell id="D9AzWVtUxg92JwBk0wAL-2" value="" style="line;strokeWidth=2;html=1;fillColor=#dae8fc;strokeColor=#6c8ebf;direction=east;" parent="1" vertex="1">
          <mxGeometry x="320" y="930" width="160" height="10" as="geometry" />
        </mxCell>
        <mxCell id="D9AzWVtUxg92JwBk0wAL-4" value="Światłowód" style="text;html=1;strokeColor=none;fillColor=none;align=center;verticalAlign=middle;whiteSpace=wrap;rounded=0;direction=east;" parent="1" vertex="1">
          <mxGeometry x="370" y="970" width="60" height="30" as="geometry" />
        </mxCell>
        <mxCell id="D9AzWVtUxg92JwBk0wAL-5" style="edgeStyle=orthogonalEdgeStyle;rounded=0;orthogonalLoop=1;jettySize=auto;html=1;exitX=0.5;exitY=0;exitDx=0;exitDy=0;entryX=0.471;entryY=0.714;entryDx=0;entryDy=0;entryPerimeter=0;" parent="1" source="D9AzWVtUxg92JwBk0wAL-4" target="D9AzWVtUxg92JwBk0wAL-2" edge="1">
          <mxGeometry relative="1" as="geometry" />
        </mxCell>
        <mxCell id="D9AzWVtUxg92JwBk0wAL-12" value="&lt;div&gt;Vlan 5&lt;/div&gt;&lt;div&gt;Wi-Fi&lt;br&gt;&lt;/div&gt;" style="rounded=0;whiteSpace=wrap;html=1;fillColor=#e1d5e7;strokeColor=#9673a6;direction=east;" parent="1" vertex="1">
          <mxGeometry x="506" y="740" width="89" height="80" as="geometry" />
        </mxCell>
        <mxCell id="72nOnzI87R823NK41PAz-126" style="edgeStyle=orthogonalEdgeStyle;rounded=0;orthogonalLoop=1;jettySize=auto;html=1;exitX=0.96;exitY=0.7;exitDx=0;exitDy=0;exitPerimeter=0;entryX=0.08;entryY=0.04;entryDx=0;entryDy=0;entryPerimeter=0;fillColor=#dae8fc;strokeColor=#6c8ebf;" parent="1" source="72nOnzI87R823NK41PAz-117" target="72nOnzI87R823NK41PAz-116" edge="1">
          <mxGeometry relative="1" as="geometry" />
        </mxCell>
        <mxCell id="72nOnzI87R823NK41PAz-172" style="edgeStyle=orthogonalEdgeStyle;rounded=0;orthogonalLoop=1;jettySize=auto;html=1;exitX=1;exitY=0.75;exitDx=0;exitDy=0;entryX=1;entryY=0.25;entryDx=0;entryDy=0;fillColor=#dae8fc;strokeColor=#6c8ebf;" parent="1" source="72nOnzI87R823NK41PAz-157" target="72nOnzI87R823NK41PAz-149" edge="1">
          <mxGeometry relative="1" as="geometry" />
        </mxCell>
      </root>
    </mxGraphModel>
  </diagram>
</mxfile>
